<mxfile host="Electron" modified="2022-03-03T14:41:36.840Z" agent="5.0 (Macintosh; Intel Mac OS X 10_15_7) AppleWebKit/537.36 (KHTML, like Gecko) draw.io/15.8.4 Chrome/91.0.4472.164 Electron/13.6.2 Safari/537.36" etag="GkcysQ6qs3eJVzlmSsi1" version="15.8.4" type="device">
  <diagram id="udniO8MD03csX5mzLp1o" name="diagram">
    <mxGraphModel dx="885" dy="714" grid="0" gridSize="10" guides="1" tooltips="1" connect="1" arrows="1" fold="1" page="1" pageScale="1" pageWidth="1169" pageHeight="827" math="0" shadow="0">
      <root>
        <mxCell id="0" />
        <mxCell id="1" parent="0" />
        <mxCell id="B3rhsz-I7kYIwtOdrkPU-1" value="" style="rounded=1;whiteSpace=wrap;html=1;labelBorderColor=none;fontSize=12;align=left;verticalAlign=top;" vertex="1" parent="1">
          <mxGeometry x="87" y="130" width="361" height="188" as="geometry" />
        </mxCell>
        <mxCell id="B3rhsz-I7kYIwtOdrkPU-2" value="read&lt;br&gt;write" style="edgeStyle=orthogonalEdgeStyle;rounded=0;orthogonalLoop=1;jettySize=auto;html=1;fontSize=12;endArrow=classic;endFill=1;" edge="1" parent="1" source="B3rhsz-I7kYIwtOdrkPU-3" target="B3rhsz-I7kYIwtOdrkPU-4">
          <mxGeometry relative="1" as="geometry" />
        </mxCell>
        <mxCell id="B3rhsz-I7kYIwtOdrkPU-3" value="Lambda Function&lt;br&gt;&quot;&lt;span class=&quot;pl-s&quot;&gt;IntroCDKv2&lt;/span&gt;&quot;" style="outlineConnect=0;fontColor=#232F3E;gradientColor=none;fillColor=#D05C17;strokeColor=none;dashed=0;verticalLabelPosition=bottom;verticalAlign=top;align=center;html=1;fontSize=12;fontStyle=0;aspect=fixed;pointerEvents=1;shape=mxgraph.aws4.lambda_function;labelBorderColor=none;" vertex="1" parent="1">
          <mxGeometry x="135" y="175" width="78" height="78" as="geometry" />
        </mxCell>
        <mxCell id="B3rhsz-I7kYIwtOdrkPU-4" value="DynamoDB&lt;br&gt;table &quot;users&quot;" style="points=[[0,0,0],[0.25,0,0],[0.5,0,0],[0.75,0,0],[1,0,0],[0,1,0],[0.25,1,0],[0.5,1,0],[0.75,1,0],[1,1,0],[0,0.25,0],[0,0.5,0],[0,0.75,0],[1,0.25,0],[1,0.5,0],[1,0.75,0]];outlineConnect=0;fontColor=#232F3E;gradientColor=#4D72F3;gradientDirection=north;fillColor=#3334B9;strokeColor=#ffffff;dashed=0;verticalLabelPosition=bottom;verticalAlign=top;align=center;html=1;fontSize=12;fontStyle=0;aspect=fixed;shape=mxgraph.aws4.resourceIcon;resIcon=mxgraph.aws4.dynamodb;labelBorderColor=none;" vertex="1" parent="1">
          <mxGeometry x="315" y="175" width="78" height="78" as="geometry" />
        </mxCell>
        <mxCell id="B3rhsz-I7kYIwtOdrkPU-5" value="CDK" style="sketch=0;points=[[0,0,0],[0.25,0,0],[0.5,0,0],[0.75,0,0],[1,0,0],[0,1,0],[0.25,1,0],[0.5,1,0],[0.75,1,0],[1,1,0],[0,0.25,0],[0,0.5,0],[0,0.75,0],[1,0.25,0],[1,0.5,0],[1,0.75,0]];outlineConnect=0;fontColor=#232F3E;gradientColor=#4D72F3;gradientDirection=north;fillColor=#3334B9;strokeColor=#ffffff;dashed=0;verticalLabelPosition=bottom;verticalAlign=top;align=center;html=1;fontSize=12;fontStyle=0;aspect=fixed;shape=mxgraph.aws4.resourceIcon;resIcon=mxgraph.aws4.cloud_development_kit;labelBorderColor=none;" vertex="1" parent="1">
          <mxGeometry x="382" y="64" width="78" height="78" as="geometry" />
        </mxCell>
      </root>
    </mxGraphModel>
  </diagram>
</mxfile>
